g Cylinder017
v -0.0002282598 0.0002282598 0.0002282598
v 14.95923 0.0002282598 0.0002282598
v 7.479502 12.95508 0.0002282598
v 7.479502 -12.95508 0.0002282598
v -7.479502 -12.95508 0.0002282598
v -14.95923 0.0002282598 0.0002282598
v -7.479502 12.95508 0.0002282598
v 7.479502 12.95508 0.0002282598
v 14.95923 0.0002282598 0.0002282598
v 14.95923 0.0002282598 9.395543
v 7.479502 12.95508 9.395543
v 7.479502 12.95508 0.0002282598
v 7.479502 -12.95508 0.0002282598
v 7.479502 -12.95508 9.395543
v -7.479502 -12.95508 0.0002282598
v -7.479502 -12.95508 9.395543
v -14.95923 0.0002282598 0.0002282598
v -14.95923 0.0002282598 9.395543
v -7.479502 12.95508 0.0002282598
v -7.479502 12.95508 9.395543
v 7.479502 12.95508 0.0002282598
v 7.479502 12.95508 9.395543
v -0.0002282598 0.0002282598 9.395543
v 7.479502 12.95508 9.395543
v 14.95923 0.0002282598 9.395543
v 7.479502 -12.95508 9.395543
v -7.479502 -12.95508 9.395543
v -14.95923 0.0002282598 9.395543
v -7.479502 12.95508 9.395543
v 7.479502 12.95508 9.395543
vn -0.003921598 0.003921598 -0.9999846
vn -0.003921598 0.003921598 -0.9999846
vn -0.003921598 0.003921598 -0.9999846
vn -0.003921598 0.003921598 -0.9999846
vn -0.003921598 0.003921598 -0.9999846
vn -0.003921598 0.003921598 -0.9999846
vn -0.003921598 0.003921598 -0.9999846
vn -0.003921598 0.003921598 -0.9999846
vn 0.9999924 0.003921598 0
vn 0.9999924 0.003921598 0
vn 0.4980354 0.8666601 -0.0293442
vn 0.4980354 0.8666601 -0.0293442
vn 0.4980354 -0.8666601 -0.0293442
vn 0.4980354 -0.8666601 -0.0293442
vn -0.4980355 -0.8666601 -0.02934319
vn -0.4980355 -0.8666601 -0.02934319
vn -0.9999924 0.003921598 0
vn -0.9999924 0.003921598 0
vn -0.4980355 0.8666601 -0.02934319
vn -0.4980355 0.8666601 -0.02934319
vn 0.4980354 0.8666601 -0.0293442
vn 0.4980354 0.8666601 -0.0293442
vn -0.003921598 0.003921598 0.9999846
vn -0.003921598 0.003921598 0.9999846
vn -0.003921598 0.003921598 0.9999846
vn -0.003921598 0.003921598 0.9999846
vn -0.003921598 0.003921598 0.9999846
vn -0.003921598 0.003921598 0.9999846
vn -0.003921598 0.003921598 0.9999846
vn -0.003921598 0.003921598 0.9999846
g Cylinder017_0
f 3/3/3 2/2/2 1/1/1
f 2/2/2 4/4/4 1/1/1
f 4/4/4 5/5/5 1/1/1
f 5/5/5 6/6/6 1/1/1
f 6/6/6 7/7/7 1/1/1
f 7/7/7 8/8/8 1/1/1
f 11/11/11 10/10/10 9/9/9
f 12/12/12 11/11/11 9/9/9
f 9/9/9 10/10/10 13/13/13
f 10/10/10 14/14/14 13/13/13
f 13/13/13 14/14/14 15/15/15
f 14/14/14 16/16/16 15/15/15
f 15/15/15 16/16/16 17/17/17
f 16/16/16 18/18/18 17/17/17
f 17/17/17 18/18/18 19/19/19
f 18/18/18 20/20/20 19/19/19
f 19/19/19 20/20/20 21/21/21
f 20/20/20 22/22/22 21/21/21
f 25/25/25 24/24/24 23/23/23
f 26/26/26 25/25/25 23/23/23
f 27/27/27 26/26/26 23/23/23
f 28/28/28 27/27/27 23/23/23
f 29/29/29 28/28/28 23/23/23
f 30/30/30 29/29/29 23/23/23
